<?xml version="1.0" encoding="utf-8"?>
<!-- Generator: Adobe Illustrator 19.0.0, SVG Export Plug-In . SVG Version: 6.00 Build 0)  -->
<svg version="1.1" id="Layer_1" xmlns="http://www.w3.org/2000/svg" xmlns:xlink="http://www.w3.org/1999/xlink" x="0px" y="0px"
	 viewBox="0 0 194 70" style="enable-background:new 0 0 194 70;" xml:space="preserve">
<style type="text/css">
	.st0{opacity:0.9;}
	.st1{fill:#323131;}
	.st2{fill:#EBC200;}
	.st3{fill:#DC9A40;}
	.st4{fill:#D88E0E;}
	.st5{fill:#212121;}
</style>
<g id="_x3C_Lema_x3E__7_">
	<g id="XMLID_1066_" class="st0">
		<path id="XMLID_1087_" class="st1" d="M132.4,68.5h-5l0.5-3l0.8-7.1h1.6l-1,7l-0.2,1.9h3.5l0.1,0.1L132.4,68.5z"/>
		<path id="XMLID_1085_" class="st1" d="M135.8,63.9l1.5,0l1.3,0l0.1,0.1l-0.2,1.1l-1.4,0l-1.4,0l-0.1,0.9l-0.1,1.3l1.4,0l2.1-0.1
			l0.1,0.1l-0.3,1.1h-4.9l0.3-2.4l0.6-5.5h4.9l0.1,0.1l-0.3,1.1l-1.9-0.1l-1.5,0L135.8,63.9z"/>
		<path id="XMLID_1083_" class="st1" d="M146.3,61.9l-1.5-0.1h-0.6l-0.6,4.2l-0.2,2.5h-1.4l0.3-2.4l0.5-4.3h-0.7l-1.5,0.1l-0.1-0.1
			l0.3-1.2h5.7l0.1,0.1L146.3,61.9z"/>
		<path id="XMLID_1081_" class="st1" d="M148.6,61.6l-0.8,0.1l-0.1-0.1l0.4-3.1l1.2-0.1l0.1,0.1L148.6,61.6z"/>
		<path id="XMLID_1079_" class="st1" d="M155.4,60.9l-0.4,1.4l-0.2,0.1c-0.5-0.5-1-0.7-1.6-0.7c-0.4,0-0.7,0.1-1,0.3
			c-0.2,0.2-0.4,0.5-0.4,0.8c0,0.3,0.1,0.5,0.3,0.6c0.2,0.2,0.5,0.3,1,0.5c0.4,0.2,0.7,0.4,1,0.5c0.2,0.2,0.5,0.4,0.6,0.6
			c0.2,0.3,0.3,0.6,0.3,1c0,0.4-0.1,0.8-0.4,1.2c-0.2,0.4-0.6,0.7-1,1c-0.5,0.2-1,0.4-1.6,0.4c-0.9,0-1.6-0.2-2.3-0.5l0.3-1.5
			l0.2-0.1c0.3,0.3,0.6,0.5,1,0.7c0.4,0.2,0.7,0.3,1,0.3c0.4,0,0.7-0.1,1-0.3c0.3-0.2,0.4-0.5,0.4-0.8c0-0.3-0.1-0.5-0.3-0.6
			c-0.2-0.2-0.5-0.4-1-0.6c-0.4-0.2-0.7-0.4-1-0.5c-0.2-0.2-0.5-0.4-0.6-0.6c-0.2-0.3-0.3-0.6-0.3-1c0-0.4,0.1-0.9,0.4-1.2
			c0.2-0.4,0.6-0.7,1-0.9c0.5-0.2,1-0.3,1.6-0.3C154.1,60.5,154.8,60.6,155.4,60.9z"/>
		<path id="XMLID_1077_" class="st1" d="M165.4,58.8l-0.4,1.4l-0.3,0.1c-0.6-0.5-1.2-0.8-1.9-0.8c-0.5,0-1,0.1-1.3,0.4
			c-0.3,0.3-0.5,0.6-0.5,1c0,0.3,0.1,0.6,0.4,0.9c0.3,0.2,0.7,0.5,1.2,0.9c0.5,0.3,0.9,0.5,1.2,0.8c0.3,0.2,0.6,0.5,0.8,0.9
			c0.2,0.3,0.3,0.7,0.3,1.2c0,0.6-0.2,1.1-0.5,1.5c-0.3,0.5-0.7,0.8-1.3,1.1c-0.6,0.3-1.2,0.4-1.9,0.4c-1,0-1.9-0.2-2.8-0.7l0.4-1.5
			l0.2-0.1c0.3,0.4,0.7,0.6,1.1,0.8c0.4,0.2,0.8,0.3,1.2,0.3c0.6,0,1-0.1,1.4-0.4c0.3-0.3,0.5-0.7,0.5-1.1c0-0.4-0.1-0.7-0.4-0.9
			c-0.3-0.2-0.7-0.5-1.2-0.9c-0.5-0.3-0.8-0.5-1.1-0.7c-0.3-0.2-0.5-0.5-0.7-0.9c-0.2-0.3-0.3-0.7-0.3-1.2c0-0.6,0.2-1.1,0.5-1.5
			c0.3-0.5,0.7-0.8,1.3-1.1c0.5-0.3,1.1-0.4,1.8-0.4C163.8,58.3,164.6,58.4,165.4,58.8z"/>
		<path id="XMLID_1075_" class="st1" d="M171.8,61.9l-1.5-0.1h-0.6l-0.6,4.2l-0.2,2.5h-1.4l0.3-2.4l0.5-4.3h-0.7l-1.5,0.1l-0.1-0.1
			l0.3-1.2h5.7l0.1,0.1L171.8,61.9z"/>
		<path id="XMLID_1072_" class="st1" d="M176.7,68.5l0-0.9l-0.2-0.9l-1.7,0l-1.5,0l-0.4,0.8l-0.4,1h-1.4l3.8-7.9h1.7l1.6,7.9H176.7z
			 M175.6,62L175.6,62l-1.8,3.5l1.2,0l1.2,0L175.6,62z"/>
		<path id="XMLID_1069_" class="st1" d="M185.6,64.2c-0.3,0.5-0.8,0.8-1.4,1.1c0.5,0.9,1,1.8,1.7,2.8l0,0.2c-0.5,0.2-1,0.3-1.4,0.3
			l-0.2-0.1l-0.2-0.4c-0.6-1.4-1-2.2-1-2.4l-1.3,0l0,0.3l-0.3,2.5h-1.4l0.4-2.4l0.6-5.5h2.8c0.7,0,1.3,0.2,1.8,0.6
			c0.4,0.4,0.6,0.9,0.6,1.5C186.1,63.2,186,63.8,185.6,64.2z M183.2,64.6c0.9-0.3,1.4-0.9,1.4-1.8c0-0.4-0.1-0.7-0.3-0.8
			c-0.2-0.2-0.5-0.3-1-0.3l-1,0l-0.4,2.8L183.2,64.6z"/>
		<path id="XMLID_1067_" class="st1" d="M193.2,61.9l-1.5-0.1h-0.6l-0.6,4.2l-0.2,2.5h-1.4l0.3-2.4l0.5-4.3h-0.7l-1.5,0.1l-0.1-0.1
			l0.3-1.2h5.7l0.1,0.1L193.2,61.9z"/>
	</g>
</g>
<path id="XMLID_8_" class="st2" d="M0.5,8.5l0-0.6c0-3.7,3-6.9,6.7-6.9h42.3L21.5,29.3L0.5,8.5z"/>
<path id="XMLID_3_" class="st2" d="M21.5,29.5l-21-21V8.1c0-3.7,3-6.7,6.7-6.7h42.3L21.5,29.5z"/>
<path id="XMLID_4_" class="st3" d="M7.2,58C3.5,58,0,54.6,0,50.8v-0.4l21.2-20.8L49.6,58H7.2z"/>
<path id="XMLID_7_" class="st3" d="M49.5,57.5H7.2c-3.7,0-6.7-3-6.7-6.7v-0.4l21-21L49.5,57.5z"/>
<polygon id="XMLID_5_" class="st4" points="0,8.5 21,29.4 0,50.5 "/>
<path id="XMLID_2_" class="st4" d="M21.5,29.5l-21,21V8.5L21.5,29.5z"/>
<g id="XMLID_1044_">
	<path id="XMLID_1060_" class="st5" d="M68.2,19.3h4.4v1.1l-8.2,9.8l8.2,9.8v1.1h-4.4l-7.4-8.9h-5.1v8.9h-4V19.3h4v8.9h5.1
		L68.2,19.3z"/>
	<path id="XMLID_1057_" class="st5" d="M89.5,23.6c1.1,0,2.1,0.4,2.9,1.2c0.8,0.8,1.2,1.8,1.2,2.9v13.4H80.1c-1.1,0-2.1-0.4-2.9-1.2
		c-0.8-0.8-1.2-1.8-1.2-2.9v-6.6h13.8v-2.6c0-0.1-0.1-0.2-0.2-0.2H75.9v-4H89.5z M89.7,37.1v-2.8h-9.9v2.6c0,0.1,0.1,0.2,0.2,0.2
		H89.7z"/>
	<path id="XMLID_1055_" class="st5" d="M102.1,23.6h9.7v4h-9.7c-0.1,0-0.2,0.1-0.2,0.2v13.4h-4V27.7c0-1.1,0.4-2.1,1.2-2.9
		C99.9,24,100.9,23.6,102.1,23.6z"/>
	<path id="XMLID_1052_" class="st5" d="M129.7,23.6c1.1,0,2.1,0.4,2.9,1.2c0.8,0.8,1.2,1.8,1.2,2.9v13.4h-13.6
		c-1.1,0-2.1-0.4-2.9-1.2c-0.8-0.8-1.2-1.8-1.2-2.9v-6.6H130v-2.6c0-0.1-0.1-0.2-0.2-0.2h-13.6v-4H129.7z M130,37.1v-2.8h-9.9v2.6
		c0,0.1,0.1,0.2,0.2,0.2H130z"/>
	<path id="XMLID_1050_" class="st5" d="M152,23.6c1.1,0,2.1,0.4,2.9,1.2c0.8,0.8,1.2,1.8,1.2,2.9v13.4h-4V27.7
		c0-0.1-0.1-0.2-0.2-0.2h-9.5c-0.1,0-0.2,0.1-0.2,0.2v13.4h-4V23.6H152z"/>
	<path id="XMLID_1048_" class="st5" d="M171.7,27.5h-6.8v9.4c0,0.1,0.1,0.2,0.2,0.2h6.6v4h-6.6c-1.2,0-2.2-0.4-3-1.2
		c-0.8-0.8-1.2-1.8-1.2-2.9V17.8h4v5.7h6.8V27.5z"/>
	<path id="XMLID_1045_" class="st5" d="M189.3,23.6c1.1,0,2.1,0.4,2.9,1.2c0.8,0.8,1.2,1.8,1.2,2.9v13.4h-13.6
		c-1.1,0-2.1-0.4-2.9-1.2c-0.8-0.8-1.2-1.8-1.2-2.9v-6.6h13.8v-2.6c0-0.1-0.1-0.2-0.2-0.2h-13.6v-4H189.3z M189.5,37.1v-2.8h-9.9
		v2.6c0,0.1,0.1,0.2,0.2,0.2H189.5z"/>
</g>
</svg>
